# xmcd
#
# Track frame offsets:
#	150
#	13657
#	28785
#	39167
#	53015
#	67395
#	80837
#	93810
#	108595
#	123017
#	136505
#	151737
#	166392
#	180137
#	193865
#	207842
#	222065
#	237043
#	249552
#	263372
#	276948
#
# Disc length: 3903 seconds
#
# Revision: 0
# Processed by: cddbd v1.5.2PL0 Copyright (c) Steve Scherf et al.
# Submitted via: EasyCDDAExtractor 2011.3.0.0
#
DISCID=0f0f3d15
DTITLE=Billie Holiday - Right to sing the blue [CD7)
DYEAR=2008
DGENRE=Blues
TTITLE0=Let's Do It
TTITLE1=Georgia On My MInd
TTITLE2=Romance In The Dark
TTITLE3=All Of Me
TTITLE4=I'm In A Low-Down Groove
TTITLE5=Got Bless The Child
TTITLE6=Am I Blue?
TTITLE7=Solitude
TTITLE8=Jim
TTITLE9=I Cover The Waterfront
TTITLE10=Love Me Or Leave Me
TTITLE11=Gloomy Sunday
TTITLE12=Wherever You Are
TTITLE13=Mandy Is Two
TTITLE14=It's A Sin To Tell A Lie
TTITLE15=Until The Real Thing Comes Along
TTITLE16=Trav'lin' Light
TTITLE17=How Am I To Know
TTITLE18=My Old Flame
TTITLE19=I'll Get By
TTITLE20=I Cover The Waterfront
EXTD=
EXTT0=
EXTT1=
EXTT2=
EXTT3=
EXTT4=
EXTT5=
EXTT6=
EXTT7=
EXTT8=
EXTT9=
EXTT10=
EXTT11=
EXTT12=
EXTT13=
EXTT14=
EXTT15=
EXTT16=
EXTT17=
EXTT18=
EXTT19=
EXTT20=
PLAYORDER=
